<mxfile host="app.diagrams.net" modified="2023-11-07T11:10:13.259Z" agent="Mozilla/5.0 (Macintosh; Intel Mac OS X 10_15_7) AppleWebKit/537.36 (KHTML, like Gecko) Chrome/119.0.0.0 Safari/537.36" version="22.0.8" etag="iXr7apjLYYOMkeQG0CZ9" type="github">
  <diagram name="Страница — 1" id="NcWIyjvkIHTgLAWmghIz">
    <mxGraphModel>
      <root>
        <mxCell id="0" />
        <mxCell id="1" parent="0" />
      </root>
    </mxGraphModel>
  </diagram>
</mxfile>
